<svg width="146" height="28" viewBox="0 0 146 28" fill="none" xmlns="http://www.w3.org/2000/svg">
<g clip-path="url(#clip0_4_25)">
<path d="M77.75 0H0V28H77.75V0Z" fill="#555555"/>
<path d="M145.25 0H77.75V28H145.25V0Z" fill="#1A91FF"/>
<path d="M23.3037 17.5H22.0488L19.6172 14.6094H18.2549V17.5H17.2881V10.2295H19.3242C19.7637 10.2295 20.1299 10.2588 20.4229 10.3174C20.7158 10.3727 20.9795 10.4736 21.2139 10.6201C21.4775 10.7861 21.6826 10.9961 21.8291 11.25C21.9788 11.5007 22.0537 11.8197 22.0537 12.207C22.0537 12.7311 21.9219 13.1706 21.6582 13.5254C21.3945 13.877 21.0316 14.1423 20.5693 14.3213L23.3037 17.5ZM21.043 12.2754C21.043 12.0671 21.0055 11.8831 20.9307 11.7236C20.859 11.5609 20.7386 11.4242 20.5693 11.3135C20.4294 11.2191 20.2633 11.154 20.0713 11.1182C19.8792 11.0791 19.653 11.0596 19.3926 11.0596H18.2549V13.8037H19.2314C19.5374 13.8037 19.8044 13.7777 20.0322 13.7256C20.2601 13.6702 20.4538 13.5693 20.6133 13.4229C20.7598 13.2861 20.8672 13.1299 20.9355 12.9541C21.0072 12.7751 21.043 12.5488 21.043 12.2754ZM29.0312 17.5H24.2412V10.2295H29.0312V11.0889H25.208V13.0811H29.0312V13.9404H25.208V16.6406H29.0312V17.5ZM35.1689 17.5H30.5693V10.2295H31.5361V16.6406H35.1689V17.5ZM40.9258 17.5H36.1357V10.2295H40.9258V11.0889H37.1025V13.0811H40.9258V13.9404H37.1025V16.6406H40.9258V17.5ZM48.1963 17.5H47.166L46.4531 15.4736H43.3086L42.5957 17.5H41.6143L44.2607 10.2295H45.5498L48.1963 17.5ZM46.1553 14.6436L44.8809 11.0742L43.6016 14.6436H46.1553ZM54.5342 15.4248C54.5342 15.708 54.4674 15.988 54.334 16.2646C54.2038 16.5413 54.0199 16.7757 53.7822 16.9678C53.5218 17.1761 53.2174 17.3389 52.8691 17.4561C52.5241 17.5732 52.1074 17.6318 51.6191 17.6318C51.0951 17.6318 50.623 17.583 50.2031 17.4854C49.7865 17.3877 49.3617 17.2428 48.9287 17.0508V15.8398H48.9971C49.3649 16.1458 49.7897 16.3818 50.2715 16.5479C50.7533 16.7139 51.2057 16.7969 51.6289 16.7969C52.2279 16.7969 52.6934 16.6846 53.0254 16.46C53.3607 16.2354 53.5283 15.9359 53.5283 15.5615C53.5283 15.2393 53.4486 15.0016 53.2891 14.8486C53.1328 14.6956 52.8936 14.5768 52.5713 14.4922C52.3271 14.4271 52.0618 14.3734 51.7754 14.3311C51.4922 14.2887 51.1911 14.235 50.8721 14.1699C50.2275 14.0332 49.749 13.8005 49.4365 13.4717C49.1273 13.1396 48.9727 12.7083 48.9727 12.1777C48.9727 11.569 49.2298 11.071 49.7441 10.6836C50.2585 10.293 50.9111 10.0977 51.7021 10.0977C52.2132 10.0977 52.682 10.1465 53.1084 10.2441C53.5348 10.3418 53.9124 10.4622 54.2412 10.6055V11.748H54.1729C53.8962 11.5137 53.5316 11.32 53.0791 11.167C52.6299 11.0107 52.1693 10.9326 51.6973 10.9326C51.1797 10.9326 50.763 11.04 50.4473 11.2549C50.1348 11.4697 49.9785 11.7464 49.9785 12.085C49.9785 12.3877 50.0566 12.6253 50.2129 12.7979C50.3691 12.9704 50.6442 13.1022 51.0381 13.1934C51.2464 13.2389 51.5426 13.2943 51.9268 13.3594C52.3109 13.4245 52.6364 13.4912 52.9033 13.5596C53.4437 13.7028 53.8506 13.9193 54.124 14.209C54.3975 14.4987 54.5342 14.904 54.5342 15.4248ZM60.877 17.5H56.0869V10.2295H60.877V11.0889H57.0537V13.0811H60.877V13.9404H57.0537V16.6406H60.877V17.5Z" fill="white"/>
<path d="M106.285 10.2295L103.634 17.5H101.534L98.8828 10.2295H100.851L102.608 15.3369L104.366 10.2295H106.285ZM113.014 17.5H107.306V16.2988C107.742 15.9831 108.178 15.6478 108.614 15.293C109.054 14.9382 109.405 14.6322 109.669 14.375C110.063 13.9941 110.343 13.6621 110.509 13.3789C110.675 13.0957 110.758 12.8158 110.758 12.5391C110.758 12.207 110.65 11.9515 110.436 11.7725C110.224 11.5902 109.918 11.499 109.518 11.499C109.218 11.499 108.902 11.5609 108.57 11.6846C108.242 11.8083 107.936 11.9661 107.652 12.1582H107.496V10.542C107.727 10.4411 108.067 10.3402 108.517 10.2393C108.969 10.1383 109.422 10.0879 109.874 10.0879C110.785 10.0879 111.48 10.2799 111.959 10.6641C112.438 11.0449 112.677 11.5853 112.677 12.2852C112.677 12.7441 112.561 13.1803 112.33 13.5938C112.102 14.0072 111.752 14.4336 111.28 14.873C110.984 15.1465 110.686 15.3988 110.387 15.6299C110.087 15.8577 109.874 16.0173 109.747 16.1084H113.014V17.5ZM116.231 17.5H114.405V15.5811H116.231V17.5ZM123.688 13.8623C123.688 14.4743 123.632 15.0228 123.521 15.5078C123.411 15.9896 123.238 16.3851 123.004 16.6943C122.763 17.0101 122.454 17.2493 122.076 17.4121C121.699 17.5716 121.233 17.6514 120.68 17.6514C120.136 17.6514 119.672 17.57 119.288 17.4072C118.904 17.2445 118.593 17.0036 118.355 16.6846C118.115 16.3656 117.94 15.9701 117.833 15.498C117.726 15.0228 117.672 14.4792 117.672 13.8672C117.672 13.2357 117.727 12.6872 117.838 12.2217C117.949 11.7562 118.124 11.3623 118.365 11.04C118.606 10.721 118.919 10.4818 119.303 10.3223C119.687 10.1628 120.146 10.083 120.68 10.083C121.236 10.083 121.703 10.166 122.081 10.332C122.459 10.4948 122.768 10.7389 123.009 11.0645C123.246 11.3835 123.419 11.7773 123.526 12.2461C123.634 12.7116 123.688 13.2503 123.688 13.8623ZM121.798 13.8623C121.798 12.9834 121.712 12.3584 121.539 11.9873C121.367 11.613 121.08 11.4258 120.68 11.4258C120.279 11.4258 119.993 11.613 119.82 11.9873C119.648 12.3584 119.562 12.9867 119.562 13.8721C119.562 14.7347 119.649 15.3564 119.825 15.7373C120.001 16.1182 120.286 16.3086 120.68 16.3086C121.074 16.3086 121.358 16.1182 121.534 15.7373C121.71 15.3564 121.798 14.7314 121.798 13.8623Z" fill="white"/>
</g>
<defs>
<clipPath id="clip0_4_25">
<rect width="145.25" height="28" fill="white"/>
</clipPath>
</defs>
</svg>
